<?xml version="1.0" standalone="no"?>
<!DOCTYPE svg PUBLIC "-//W3C//DTD SVG 20010904//EN"
 "http://www.w3.org/TR/2001/REC-SVG-20010904/DTD/svg10.dtd">
<svg version="1.0" xmlns="http://www.w3.org/2000/svg"
 width="32.000000pt" height="32.000000pt" viewBox="0 0 32.000000 32.000000"
 preserveAspectRatio="xMidYMid meet">

<g transform="translate(0.000000,32.000000) scale(0.100000,-0.100000)"
fill="#000000" stroke="none">
<path d="M85 260 c-3 -5 -17 -10 -31 -10 -13 0 -24 -4 -24 -10 0 -5 9 -10 20
-10 11 0 29 -6 40 -12 16 -10 24 -10 40 0 11 6 51 12 90 12 40 0 70 4 70 10 0
6 -31 10 -74 10 -41 0 -78 5 -81 10 -3 6 -15 10 -25 10 -10 0 -22 -4 -25 -10z"/>
<path d="M165 180 c-3 -5 -35 -10 -71 -10 -36 0 -64 -4 -64 -10 0 -6 27 -10
60 -10 33 0 69 -6 80 -12 16 -10 24 -10 40 0 11 6 33 12 50 12 16 0 30 5 30
10 0 6 -15 10 -34 10 -19 0 -38 5 -41 10 -3 6 -15 10 -25 10 -10 0 -22 -4 -25
-10z"/>
<path d="M85 100 c-3 -5 -17 -10 -31 -10 -13 0 -24 -4 -24 -10 0 -5 9 -10 20
-10 11 0 29 -6 40 -12 16 -10 24 -10 40 0 11 6 51 12 90 12 40 0 70 4 70 10 0
6 -31 10 -74 10 -41 0 -78 5 -81 10 -3 6 -15 10 -25 10 -10 0 -22 -4 -25 -10z"/>
</g>
</svg>
